<?xml version="1.0" encoding="utf-8"?>
<!-- Generator: Adobe Illustrator 27.9.0, SVG Export Plug-In . SVG Version: 6.00 Build 0)  -->
<svg version="1.1" id="Layer_1" xmlns="http://www.w3.org/2000/svg" xmlns:xlink="http://www.w3.org/1999/xlink" x="0px" y="0px"
	 viewBox="0 0 512 512" style="enable-background:new 0 0 512 512;" xml:space="preserve">
<style type="text/css">
	.st0{fill:#703092;}
	.st1{fill:#FFFFFF;}
</style>
<rect x="160" y="160" class="st0" width="193.2" height="193.2"/>
<g>
	<path class="st1" d="M161.65,257.57l13.37,28.63c0.4,0.86,1.62,0.86,2.02-0.01l13.27-28.85c0.39-0.85,0.39-1.84,0-2.69
		l-13.27-28.85c-0.4-0.86-1.62-0.86-2.02-0.01l-13.37,28.63C161.18,255.42,161.18,256.58,161.65,257.57z"/>
	<path class="st1" d="M196.17,231.41l-2.13,4.56c-0.31,0.66-0.31,1.42-0.01,2.09l7.18,15.61c0.3,0.66,0.3,1.42,0,2.07l-7.18,15.61
		c-0.31,0.66-0.3,1.43,0.01,2.09l2.13,4.56c0.31,0.66,1.25,0.66,1.56,0l10.24-22.26c0.3-0.66,0.3-1.42,0-2.07l-10.24-22.26
		C197.42,230.75,196.48,230.74,196.17,231.41z"/>
	<path class="st1" d="M211.32,268.22l8.22-14.39l-8.22-14.39l18.68,1.74c2.08,0,3.8,0.3,5.15,0.91c1.35,0.6,2.36,1.41,3.02,2.43
		c0.66,1.01,0.99,2.14,0.99,3.37c0,1.09-0.23,1.99-0.69,2.69c-0.45,0.71-1.04,1.27-1.78,1.68c-0.73,0.41-1.52,0.72-2.38,0.91v0.25
		c0.91,0.05,1.83,0.32,2.76,0.82c0.92,0.49,1.7,1.2,2.32,2.13c0.62,0.92,0.93,2.05,0.93,3.39c0,1.27-0.34,2.41-1.02,3.42
		c-0.68,1.01-1.76,1.82-3.23,2.41c-1.47,0.59-3.38,0.89-5.74,0.89L211.32,268.22z M221.1,263.76h9.24c2.37,0,4.04-0.39,5.04-1.16
		c1-0.78,1.5-1.73,1.5-2.84c0-0.86-0.26-1.65-0.77-2.37c-0.52-0.73-1.25-1.32-2.2-1.75c-0.95-0.44-2.08-0.67-3.39-0.67h-7.36
		L221.1,263.76z M223.16,252.3h6.72c1.09,0,2.07-0.18,2.95-0.54c0.89-0.36,1.59-0.87,2.1-1.53c0.53-0.66,0.79-1.43,0.79-2.32
		c0-1.11-0.46-2.06-1.37-2.83c-0.92-0.78-2.37-1.17-4.35-1.17h-8.89L223.16,252.3z"/>
	<path class="st1" d="M244.23,266.48v-25.3h12.16c2.34,0,4.25,0.34,5.75,1.01c1.5,0.67,2.61,1.59,3.33,2.76
		c0.72,1.17,1.08,2.5,1.08,3.99c0,1.49-0.36,2.81-1.08,3.97c-0.72,1.15-1.83,2.06-3.31,2.72c-1.49,0.65-3.39,0.98-5.71,0.98h-8.18
		v-2.77h8.06c1.6,0,2.88-0.2,3.85-0.59c0.98-0.4,1.69-0.96,2.13-1.68c0.45-0.73,0.67-1.61,0.67-2.62s-0.22-1.9-0.67-2.66
		c-0.45-0.76-1.16-1.34-2.15-1.75c-0.98-0.42-2.28-0.63-3.9-0.63h-6.37v22.59H244.23z M260.36,255.11l7.36,11.37h-4.21l-7.24-11.37
		H260.36z"/>
	<path class="st1" d="M273.81,266.48h-5.85l10.98-25.3h5.79l10.98,25.3h-3.8l-8.94-21.3h-0.23L273.81,266.48z M275.21,256.6h15.3
		v2.72h-15.3V256.6z"/>
	<path class="st1" d="M322.03,241.18v25.3h-3.5l-16.3-19.87h-0.29v19.87h-5.68v-25.3h5.56l16.35,19.92h0.29v-19.92H322.03z"/>
	<path class="st1" d="M336.45,266.48h-11.28v-25.3h11.69c2.9,0,5.38,0.51,7.45,1.52c2.06,1,3.65,2.45,4.75,4.34
		c1.1,1.88,1.65,4.13,1.65,6.75c0,2.64-0.55,4.91-1.66,6.81c-1.11,1.89-2.73,3.35-4.85,4.37
		C342.07,265.97,339.49,266.48,336.45,266.48z M330.84,263.76h5.37c2.47,0,4.52-0.4,6.15-1.21c1.63-0.81,2.84-1.96,3.64-3.45
		c0.8-1.49,1.2-3.27,1.2-5.33c0-2.04-0.39-3.8-1.18-5.28c-0.79-1.48-1.97-2.62-3.53-3.41c-1.57-0.8-3.52-1.2-5.86-1.2h-5.78V263.76z
		"/>
</g>
</svg>
